<?xml version="1.0" encoding="utf-8"?>
<!-- Generator: Adobe Illustrator 22.0.0, SVG Export Plug-In . SVG Version: 6.00 Build 0)  -->
<svg version="1.1" id="Layer_1" xmlns="http://www.w3.org/2000/svg" xmlns:xlink="http://www.w3.org/1999/xlink" x="0px" y="0px"
	 viewBox="0 0 33.1 37" enable-background="new 0 0 33.1 37" xml:space="preserve">
<g>
	<path fill="#154269" d="M30.6,12.1l-7.8,1.4c-0.3-1.6-0.9-2.7-1.8-3.5s-2.1-1.2-3.6-1.2c-2,0-3.6,0.7-4.7,2.1
		c-1.2,1.4-1.8,3.7-1.8,6.9c0,3.6,0.6,6.1,1.8,7.6c1.2,1.5,2.8,2.2,4.8,2.2c1.5,0,2.7-0.4,3.7-1.3c1-0.9,1.6-2.3,2-4.4l7.8,1.3
		c-0.8,3.6-2.4,6.3-4.7,8.1C24,33,20.9,33.9,17,33.9c-4.4,0-7.9-1.4-10.5-4.2C3.9,27,2.6,23.1,2.6,18.2c0-5,1.3-8.8,3.9-11.6
		c2.6-2.8,6.2-4.1,10.6-4.1c3.7,0,6.6,0.8,8.7,2.4C28.1,6.4,29.6,8.8,30.6,12.1z"/>
</g>
<circle fill="#1ABB9C" cx="17.6" cy="18.3" r="5.3"/>
</svg>
